<?xml version="1.0" standalone="no"?>
<!DOCTYPE svg PUBLIC "-//W3C//DTD SVG 20010904//EN"
 "http://www.w3.org/TR/2001/REC-SVG-20010904/DTD/svg10.dtd">
<svg version="1.0" xmlns="http://www.w3.org/2000/svg"
 width="408.000000pt" height="612.000000pt" viewBox="0 0 408.000000 612.000000"
 preserveAspectRatio="xMidYMid meet">

<g transform="translate(0.000000,612.000000) scale(0.100000,-0.100000)"
fill="#000000" stroke="none">
<path d="M805 4741 c-83 -37 -131 -211 -123 -448 4 -110 9 -140 35 -215 17
-49 49 -117 72 -152 l42 -64 -44 -79 c-137 -249 -214 -575 -188 -801 32 -269
149 -483 355 -650 221 -180 463 -286 786 -344 47 -8 152 -13 280 -13 230 0
336 17 520 79 l97 33 13 -56 c40 -182 177 -291 368 -291 157 0 295 90 364 236
74 159 58 341 -46 497 -30 45 -36 63 -36 106 0 28 7 68 16 89 62 146 89 304
81 491 -8 214 -54 391 -151 585 l-54 108 34 48 c110 154 153 366 120 597 -34
242 -79 274 -317 224 -217 -45 -370 -132 -489 -279 l-35 -43 -59 20 c-33 12
-109 30 -169 42 -95 18 -136 20 -291 16 -185 -4 -278 -18 -405 -59 l-64 -20
-25 33 c-77 103 -199 196 -324 247 -131 52 -315 85 -363 63z m260 -121 c172
-55 287 -134 370 -255 27 -39 45 -55 60 -55 13 0 66 13 119 30 260 80 569 80
809 0 48 -17 97 -30 107 -30 12 0 35 21 58 53 50 67 138 147 198 181 140 78
399 135 438 96 27 -27 49 -192 43 -330 -7 -173 -41 -273 -132 -384 -25 -31
-45 -61 -45 -68 0 -7 9 -26 21 -43 145 -213 234 -590 200 -848 -16 -122 -16
-122 -58 -90 -79 61 -197 33 -260 -61 -37 -54 -52 -103 -62 -196 l-6 -64 -41
-7 c-137 -24 -213 -108 -214 -236 0 -36 -7 -76 -16 -96 -14 -30 -28 -38 -114
-70 -183 -68 -274 -82 -535 -82 -217 1 -237 2 -349 29 -496 116 -848 390 -946
736 -31 107 -38 305 -16 432 32 190 91 354 186 519 28 48 50 88 50 90 0 3 -20
31 -45 64 -91 122 -134 282 -121 459 7 104 30 210 53 245 14 22 20 23 82 18
36 -3 111 -20 166 -37z m2136 -1809 c23 -19 24 -24 24 -163 l0 -143 44 -73
c63 -105 75 -143 75 -252 1 -86 -2 -101 -30 -160 -17 -36 -48 -83 -69 -104
-112 -113 -314 -127 -425 -28 l-43 38 65 -4 c71 -5 108 8 108 36 0 28 -21 42
-62 42 -55 0 -136 20 -154 37 -11 11 -14 32 -12 81 4 88 24 104 146 112 96 6
112 12 112 41 0 43 -109 60 -209 33 -23 -7 -24 -6 -18 35 7 52 36 86 97 115
37 17 66 21 164 22 114 1 135 7 136 36 0 18 -36 38 -80 44 -43 6 -50 10 -55
35 -8 33 18 138 42 175 21 32 70 64 99 64 12 0 32 -9 45 -19z"/>
<path d="M1348 3946 c-51 -18 -84 -41 -104 -71 -35 -53 8 -86 54 -42 41 38 70
49 119 45 35 -2 48 1 57 14 8 14 7 22 -9 37 -28 26 -73 33 -117 17z"/>
<path d="M2453 3933 c-32 -6 -55 -41 -43 -64 8 -14 19 -17 62 -13 53 5 60 3
129 -47 21 -16 49 -5 49 19 0 60 -117 122 -197 105z"/>
<path d="M1309 3587 c-97 -65 -115 -230 -35 -323 27 -31 39 -37 81 -41 63 -6
108 22 142 86 30 57 31 156 3 218 -35 78 -123 106 -191 60z m153 -54 c20 -18
24 -73 6 -91 -7 -7 -21 -12 -33 -12 -31 0 -45 19 -45 62 0 52 36 74 72 41z"/>
<path d="M2465 3576 c-114 -52 -141 -241 -48 -338 84 -88 204 -40 232 93 33
153 -74 296 -184 245z m125 -76 c24 -24 25 -48 4 -78 -18 -26 -37 -28 -58 -6
-29 29 -11 104 25 104 5 0 18 -9 29 -20z"/>
<path d="M1797 3420 c-101 -26 -206 -105 -247 -187 -32 -63 -39 -166 -16 -228
19 -49 83 -113 148 -146 133 -68 326 -66 466 5 55 28 117 92 138 142 17 40 17
146 1 191 -33 88 -114 161 -226 204 -63 24 -203 34 -264 19z m183 -75 c63 -8
122 -37 174 -85 115 -106 96 -271 -39 -335 -182 -86 -454 -31 -511 102 -30 69
-6 173 54 236 52 56 176 100 252 91 14 -2 45 -6 70 -9z"/>
<path d="M1730 3178 c-22 -24 -27 -77 -10 -109 7 -12 21 -19 40 -19 55 0 76
84 33 133 -21 23 -38 22 -63 -5z"/>
<path d="M2011 3164 c-27 -35 -27 -76 2 -110 20 -23 26 -25 45 -15 45 24 53
91 15 133 -22 25 -38 23 -62 -8z"/>
<path d="M2346 2915 c-3 -8 -3 -21 0 -29 8 -20 -75 -80 -144 -107 -84 -31
-192 -49 -297 -49 -108 0 -121 -8 -112 -71 11 -85 106 -178 204 -200 69 -16
150 0 216 43 65 42 121 128 155 240 23 75 28 85 43 77 46 -24 63 22 29 79 -16
26 -26 32 -54 32 -21 0 -36 -6 -40 -15z m-109 -290 c18 -48 -149 -127 -229
-110 -40 9 -33 32 19 68 69 49 197 74 210 42z"/>
</g>
</svg>
