<?xml version="1.0" encoding="UTF-8"?>
<!DOCTYPE svg PUBLIC "-//W3C//DTD SVG 1.1//EN" "http://www.w3.org/Graphics/SVG/1.1/DTD/svg11.dtd">
<svg xmlns="http://www.w3.org/2000/svg" version="1.1" width="505px" height="494px" style="shape-rendering:geometricPrecision; text-rendering:geometricPrecision; image-rendering:optimizeQuality; fill-rule:evenodd; clip-rule:evenodd" xmlns:xlink="http://www.w3.org/1999/xlink">
<g><path style="opacity:0.004" fill="#fefffe" d="M 198.5,-0.5 C 198.833,-0.5 199.167,-0.5 199.5,-0.5C 199.315,0.170143 198.981,0.170143 198.5,-0.5 Z"/></g>
<g><path style="opacity:0.004" fill="#fefffe" d="M 298.5,5.5 C 299.833,6.16667 299.833,6.16667 298.5,5.5 Z"/></g>
<g><path style="opacity:0.004" fill="#fefffe" d="M 413.5,13.5 C 414.833,14.1667 414.833,14.1667 413.5,13.5 Z"/></g>
<g><path style="opacity:0.945" fill="#f9e17e" d="M 297.5,18.5 C 282.798,16.0212 267.965,15.0212 253,15.5C 243.5,15.6667 234,15.8333 224.5,16C 216.299,18.1477 207.966,19.3144 199.5,19.5C 224.048,13.7794 249.048,11.9461 274.5,14C 282.464,14.657 290.131,16.157 297.5,18.5 Z"/></g>
<g><path style="opacity:0.004" fill="#fefffe" d="M 436.5,24.5 C 437.833,25.1667 437.833,25.1667 436.5,24.5 Z"/></g>
<g><path style="opacity:1" fill="#fad328" d="M 297.5,18.5 C 361.187,31.598 411.02,65.2647 447,119.5C 464.471,147.798 475.805,178.465 481,211.5C 481.499,215.152 481.665,218.818 481.5,222.5C 481.676,238.854 481.176,255.187 480,271.5C 479.94,276.39 478.94,281.057 477,285.5C 476.501,289.152 476.335,292.818 476.5,296.5C 474.175,308.142 470.841,319.475 466.5,330.5C 465.279,331.028 464.113,331.695 463,332.5C 461.114,337.548 459.114,342.548 457,347.5C 456.333,348.833 455.667,348.833 455,347.5C 454.498,350.513 453.998,353.513 453.5,356.5C 432.79,394.711 403.457,424.544 365.5,446C 360.958,448.438 356.291,450.604 351.5,452.5C 345.228,453.623 339.228,455.623 333.5,458.5C 329.982,458.715 329.649,457.881 332.5,456C 331.207,455.51 329.873,455.343 328.5,455.5C 328.286,457.144 328.62,458.644 329.5,460C 318.111,464.079 306.778,467.579 295.5,470.5C 288.752,470.677 282.085,471.51 275.5,473C 258.662,473.168 241.995,473.668 225.5,474.5C 224.833,474.167 224.167,473.833 223.5,473.5C 223.389,472.883 223.056,472.383 222.5,472C 210.737,470.262 199.071,468.095 187.5,465.5C 133.258,449.924 90.5914,418.591 59.5,371.5C 58.222,369.177 57.222,366.677 56.5,364C 53.6107,359.708 50.6107,355.542 47.5,351.5C 35.8892,330.123 27.8892,307.457 23.5,283.5C 23.5,281.5 23.5,279.5 23.5,277.5C 22.545,259.509 22.3783,241.509 23,223.5C 26.5715,207.28 29.7382,190.947 32.5,174.5C 33.4535,168.252 35.2868,162.252 38,156.5C 47.803,133.238 60.9697,112.238 77.5,93.5C 84.4249,87.2418 91.0915,80.5751 97.5,73.5C 100.998,69.1691 104.998,65.3358 109.5,62C 136.494,41.672 166.494,27.5053 199.5,19.5C 207.966,19.3144 216.299,18.1477 224.5,16C 234,15.8333 243.5,15.6667 253,15.5C 267.965,15.0212 282.798,16.0212 297.5,18.5 Z"/></g>
<g><path style="opacity:1" fill="#6cc242" d="M 278.5,30.5 C 258.154,29.0004 237.821,29.167 217.5,31C 210.205,32.939 202.872,34.7723 195.5,36.5C 187.317,40.9709 178.65,43.9709 169.5,45.5C 174.943,42.5253 180.61,39.692 186.5,37C 216.859,27.9072 247.525,25.7405 278.5,30.5 Z"/></g>
<g><path style="opacity:0.004" fill="#fefffe" d="M 18.5,58.5 C 19.8333,59.1667 19.8333,59.1667 18.5,58.5 Z"/></g>
<g><path style="opacity:0.004" fill="#fefffe" d="M 58.5,62.5 C 59.8333,63.1667 59.8333,63.1667 58.5,62.5 Z"/></g>
<g><path style="opacity:0.298" fill="#fde483" d="M 97.5,73.5 C 91.0915,80.5751 84.4249,87.2418 77.5,93.5C 83.1878,85.8122 89.8544,79.1456 97.5,73.5 Z"/></g>
<g><path style="opacity:1" fill="#07be61" d="M 278.5,30.5 C 349.458,40.6179 403.625,76.2846 441,137.5C 448.566,153.06 455.233,169.06 461,185.5C 462.614,194.508 464.447,203.508 466.5,212.5C 467.76,231.822 467.76,251.155 466.5,270.5C 464.168,287.36 460.501,303.86 455.5,320C 441.535,353.369 421.201,382.536 394.5,407.5C 368.617,428.776 339.617,444.276 307.5,454C 296.59,456.12 285.59,457.62 274.5,458.5C 260.163,458.667 245.829,458.5 231.5,458C 220.094,456.82 208.761,455.32 197.5,453.5C 193.266,452.251 188.933,451.418 184.5,451C 172.121,445.782 159.788,440.448 147.5,435C 144.537,433.039 141.871,430.706 139.5,428C 123.088,419.666 108.588,408.499 96,394.5C 67.7309,363.968 48.8976,328.302 39.5,287.5C 38.2861,279.225 37.4528,270.892 37,262.5C 36.7679,261.263 36.2679,260.263 35.5,259.5C 33.4178,227.141 38.4178,196.141 50.5,166.5C 54.0748,161.69 56.9082,156.357 59,150.5C 60.3333,147.833 61.6667,147.833 63,150.5C 62.4016,147.839 62.5683,145.173 63.5,142.5C 66.8647,137.587 70.0314,132.587 73,127.5C 73.3333,125.5 73.6667,123.5 74,121.5C 75.8783,119.957 77.3783,118.124 78.5,116C 80.433,115.749 82.2663,115.249 84,114.5C 84.8215,111.883 85.3215,109.216 85.5,106.5C 91.6315,99.1989 97.9649,92.0323 104.5,85C 111.126,80.0425 117.46,74.7092 123.5,69C 128.402,65.4828 133.402,62.1494 138.5,59C 140.788,58.1779 143.122,57.5112 145.5,57C 151.489,53.3332 157.489,49.6665 163.5,46C 165.473,45.5045 167.473,45.3379 169.5,45.5C 178.65,43.9709 187.317,40.9709 195.5,36.5C 202.872,34.7723 210.205,32.939 217.5,31C 237.821,29.167 258.154,29.0004 278.5,30.5 Z"/></g>
<g><path style="opacity:1" fill="#02be62" d="M 135.5,93.5 C 139.325,94.9813 143.325,95.8146 147.5,96C 150.438,96.6958 153.104,97.8625 155.5,99.5C 160.833,104.507 167.166,108.007 174.5,110C 177.669,114.335 181.336,118.168 185.5,121.5C 187.448,123.789 189.448,126.122 191.5,128.5C 200.416,128.629 209.082,126.963 217.5,123.5C 235.446,121.758 253.446,121.091 271.5,121.5C 281.398,122.214 290.731,124.714 299.5,129C 305.062,130.581 309.562,129.081 313,124.5C 314.709,121.582 316.542,118.748 318.5,116C 323.308,112.692 327.975,109.192 332.5,105.5C 333.386,104.675 333.719,103.675 333.5,102.5C 342.985,99.4606 352.652,96.6273 362.5,94C 368.917,93.1304 375.251,93.4638 381.5,95C 382.244,96.8148 382.911,98.6481 383.5,100.5C 386.075,117.451 385.908,134.451 383,151.5C 380.489,156.522 377.989,161.522 375.5,166.5C 374.92,168.749 373.587,170.415 371.5,171.5C 368.298,173.576 366.965,176.576 367.5,180.5C 367.667,182.167 367.833,183.833 368,185.5C 369.634,187.837 371.467,189.837 373.5,191.5C 377.799,199.873 381.632,208.539 385,217.5C 386.679,226.397 388.512,235.064 390.5,243.5C 392.356,257.321 391.689,270.988 388.5,284.5C 388,284.833 387.5,285.167 387,285.5C 378.955,280.46 370.788,280.293 362.5,285C 360.937,285.759 359.937,286.926 359.5,288.5C 356.832,290.336 354.666,292.669 353,295.5C 350.386,303.287 349.053,311.287 349,319.5C 339.258,321.204 330.925,325.537 324,332.5C 323.887,334.974 322.887,336.974 321,338.5C 320.818,344.897 320.152,351.23 319,357.5C 316.672,358.664 314.838,360.33 313.5,362.5C 308.123,364.506 302.79,366.506 297.5,368.5C 289.686,370.811 281.686,372.144 273.5,372.5C 256.83,372.667 240.163,372.5 223.5,372C 212.62,370.151 201.954,367.484 191.5,364C 183.305,360.193 174.971,356.693 166.5,353.5C 161.953,352.152 157.62,350.318 153.5,348C 142.795,340.304 132.962,331.471 124,321.5C 122.377,316.567 119.544,312.567 115.5,309.5C 111.296,300.457 108.296,291.124 106.5,281.5C 106.145,266.464 106.645,251.464 108,236.5C 109.299,235.91 110.132,234.91 110.5,233.5C 113.169,224.116 115.836,214.783 118.5,205.5C 120.075,196.211 124.241,188.211 131,181.5C 131.167,180.5 131.333,179.5 131.5,178.5C 126.91,172.062 122.91,165.228 119.5,158C 118.384,154.084 117.217,150.251 116,146.5C 115.502,143.518 115.335,140.518 115.5,137.5C 115.334,129.826 115.5,122.159 116,114.5C 117.911,108.028 119.244,101.361 120,94.5C 121.822,92.9546 123.989,92.288 126.5,92.5C 129.517,92.7683 132.517,93.1016 135.5,93.5 Z"/></g>
<g><path style="opacity:1" fill="#279a60" d="M 387.5,87.5 C 385.577,87.205 383.91,86.3717 382.5,85C 373.388,84.0721 364.388,84.5721 355.5,86.5C 357.042,85.8592 358.376,84.8592 359.5,83.5C 367.543,82.1358 375.543,82.3025 383.5,84C 385.319,84.7403 386.652,85.9069 387.5,87.5 Z"/></g>
<g><path style="opacity:1" fill="#18ae64" d="M 144.5,85.5 C 135.946,83.5847 127.279,83.0847 118.5,84C 110.187,91.1356 106.02,100.302 106,111.5C 105.833,116.833 105.667,122.167 105.5,127.5C 105.505,133.211 106.172,138.544 107.5,143.5C 107.5,144.833 107.5,146.167 107.5,147.5C 109.111,153.996 111.111,160.33 113.5,166.5C 112.542,166.047 111.708,165.381 111,164.5C 110.651,160.418 108.984,157.085 106,154.5C 104.423,137.539 104.09,120.539 105,103.5C 105.287,101.109 105.787,98.7759 106.5,96.5C 104.96,92.6938 106.293,90.6938 110.5,90.5C 110.682,88.4086 110.348,86.4086 109.5,84.5C 121.415,79.0611 133.082,79.3945 144.5,85.5 Z"/></g>
<g><path style="opacity:1" fill="#545555" d="M 107.5,147.5 C 107.5,146.167 107.5,144.833 107.5,143.5C 107.168,130.129 107.668,116.796 109,103.5C 110.154,102.257 111.488,101.257 113,100.5C 112.864,116.158 112.364,131.825 111.5,147.5C 112.441,147.489 113.108,147.989 113.5,149C 113.182,151.375 111.849,152.542 109.5,152.5C 109.598,150.447 108.931,148.78 107.5,147.5 Z"/></g>
<g><path style="opacity:0.004" fill="#fefffe" d="M 488.5,121.5 C 489.833,122.167 489.833,122.167 488.5,121.5 Z"/></g>
<g><path style="opacity:1" fill="#50bf4c" d="M 85.5,106.5 C 85.3215,109.216 84.8215,111.883 84,114.5C 82.2663,115.249 80.433,115.749 78.5,116C 77.3783,118.124 75.8783,119.957 74,121.5C 73.6667,123.5 73.3333,125.5 73,127.5C 70.0314,132.587 66.8647,137.587 63.5,142.5C 62.5683,145.173 62.4016,147.839 63,150.5C 61.6667,147.833 60.3333,147.833 59,150.5C 56.9082,156.357 54.0748,161.69 50.5,166.5C 50.523,164.073 51.023,161.74 52,159.5C 54.5903,155.844 56.5903,151.844 58,147.5C 62.0978,141.641 65.4311,135.307 68,128.5C 71.5818,122.577 75.5818,116.911 80,111.5C 81.7038,109.627 83.5372,107.96 85.5,106.5 Z"/></g>
<g><path style="opacity:0.829" fill="#f9de70" d="M 32.5,174.5 C 29.7382,190.947 26.5715,207.28 23,223.5C 22.3783,241.509 22.545,259.509 23.5,277.5C 19.2996,246.713 20.7996,216.046 28,185.5C 29.0377,181.532 30.5377,177.865 32.5,174.5 Z"/></g>
<g><path style="opacity:0.004" fill="#fefffe" d="M 497.5,209.5 C 498.833,210.167 498.833,210.167 497.5,209.5 Z"/></g>
<g><path style="opacity:0.004" fill="#fefffe" d="M 9.5,219.5 C 10.8333,220.167 10.8333,220.167 9.5,219.5 Z"/></g>
<g><path style="opacity:1" fill="#96cb38" d="M 466.5,212.5 C 467.268,213.263 467.768,214.263 468,215.5C 468.667,231.5 468.667,247.5 468,263.5C 467.814,266.036 467.314,268.369 466.5,270.5C 467.76,251.155 467.76,231.822 466.5,212.5 Z"/></g>
<g><path style="opacity:0.004" fill="#fefffe" d="M 15.5,255.5 C 16.8333,256.167 16.8333,256.167 15.5,255.5 Z"/></g>
<g><path style="opacity:0.863" fill="#f6d966" d="M 481.5,222.5 C 484.089,240.694 483.923,259.027 481,277.5C 480.18,284.122 478.68,290.455 476.5,296.5C 476.335,292.818 476.501,289.152 477,285.5C 478.94,281.057 479.94,276.39 480,271.5C 481.176,255.187 481.676,238.854 481.5,222.5 Z"/></g>
<g><path style="opacity:1" fill="#c1d73b" d="M 35.5,259.5 C 36.2679,260.263 36.7679,261.263 37,262.5C 37.4528,270.892 38.2861,279.225 39.5,287.5C 38.3794,285.046 37.546,282.379 37,279.5C 36.3891,272.836 35.8891,266.17 35.5,259.5 Z"/></g>
<g><path style="opacity:0.004" fill="#fefffe" d="M 23.5,283.5 C 22.8333,284.167 22.8333,284.167 23.5,283.5 Z"/></g>
<g><path style="opacity:1" fill="#209d60" d="M 399.5,249.5 C 401.81,267.43 400.31,285.097 395,302.5C 394.098,304.431 392.931,306.097 391.5,307.5C 398.676,288.918 401.342,269.584 399.5,249.5 Z"/></g>
<g><path style="opacity:1" fill="#466352" d="M 105.5,215.5 C 103.619,225.29 101.453,234.957 99,244.5C 98.3333,257.5 98.3333,270.5 99,283.5C 100.313,287.42 101.313,291.42 102,295.5C 103.972,296.305 105.472,297.639 106.5,299.5C 106.833,298.833 107.167,298.167 107.5,297.5C 106.598,292.209 106.265,286.876 106.5,281.5C 108.296,291.124 111.296,300.457 115.5,309.5C 114.5,309.5 113.5,309.5 112.5,309.5C 111.491,306.951 110.658,304.285 110,301.5C 108.969,302.7 108.135,304.034 107.5,305.5C 108.171,308.185 108.838,310.852 109.5,313.5C 97.7592,293.908 93.2592,272.575 96,249.5C 98.2137,240.22 100.214,230.886 102,221.5C 102.876,219.242 104.043,217.242 105.5,215.5 Z"/></g>
<g><path style="opacity:1" fill="#515854" d="M 285.5,308.5 C 281.006,314.721 276.339,320.721 271.5,326.5C 260.367,331.751 249.201,331.751 238,326.5C 235.676,323.177 233.009,320.177 230,317.5C 229.517,316.552 229.351,315.552 229.5,314.5C 228.5,314.5 227.5,314.5 226.5,314.5C 226.086,312.192 225.753,309.858 225.5,307.5C 225.326,305.307 225.993,303.473 227.5,302C 243.397,302.682 258.731,300.349 273.5,295C 277.6,292.533 281.434,289.699 285,286.5C 285.506,279.388 288.84,277.721 295,281.5C 297.164,284.447 297.998,287.781 297.5,291.5C 294.635,291.055 292.135,291.722 290,293.5C 288.363,298.533 286.863,303.533 285.5,308.5 Z"/></g>
<g><path style="opacity:1" fill="#3c7153" d="M 359.5,288.5 C 357.913,291.268 356.08,293.935 354,296.5C 352.547,304.835 351.047,313.168 349.5,321.5C 337.709,322.583 329.042,328.25 323.5,338.5C 322.865,344.549 322.032,350.549 321,356.5C 320.626,357.416 320.126,358.25 319.5,359C 317.595,360.421 315.595,361.588 313.5,362.5C 314.838,360.33 316.672,358.664 319,357.5C 320.152,351.23 320.818,344.897 321,338.5C 322.887,336.974 323.887,334.974 324,332.5C 330.925,325.537 339.258,321.204 349,319.5C 349.053,311.287 350.386,303.287 353,295.5C 354.666,292.669 356.832,290.336 359.5,288.5 Z"/></g>
<g><path style="opacity:1" fill="#269d61" d="M 110.5,315.5 C 114.345,319.512 117.179,324.178 119,329.5C 123.669,333.003 127.836,337.003 131.5,341.5C 126.846,337.69 122.012,334.023 117,330.5C 113.382,326.152 111.215,321.152 110.5,315.5 Z"/></g>
<g><path style="opacity:1" fill="#505953" d="M 144.5,85.5 C 144.833,85.5 145.167,85.5 145.5,85.5C 150.854,87.5594 156.354,89.5594 162,91.5C 166.404,94.7543 170.904,97.7543 175.5,100.5C 177.674,100.75 179.341,101.75 180.5,103.5C 185.733,108.563 190.4,114.063 194.5,120C 196.387,120.78 198.054,120.613 199.5,119.5C 207.406,117.313 215.406,115.313 223.5,113.5C 242.517,112.232 261.517,112.399 280.5,114C 283.48,114.767 286.146,116.1 288.5,118C 292.571,118.524 296.571,119.358 300.5,120.5C 302.299,120.423 303.966,119.923 305.5,119C 307.833,116 310.167,113 312.5,110C 317.837,106.057 322.837,101.89 327.5,97.5C 329.932,96.2498 332.266,94.7498 334.5,93C 341.596,90.4634 348.596,88.2967 355.5,86.5C 364.388,84.5721 373.388,84.0721 382.5,85C 383.91,86.3717 385.577,87.205 387.5,87.5C 388.15,89.4352 388.483,91.4352 388.5,93.5C 389.5,93.5 390.5,93.5 391.5,93.5C 392.77,100.813 393.937,108.146 395,115.5C 395.667,122.167 395.667,128.833 395,135.5C 393.384,144.327 391.384,152.993 389,161.5C 385.135,167.465 381.635,173.631 378.5,180C 383.243,191.308 388.076,202.475 393,213.5C 396.292,225.299 398.459,237.299 399.5,249.5C 401.342,269.584 398.676,288.918 391.5,307.5C 387.47,317.397 389.303,326.064 397,333.5C 397.878,336.709 399.211,339.709 401,342.5C 401.181,345.695 401.681,348.695 402.5,351.5C 403.251,362.579 401.584,373.246 397.5,383.5C 395.048,386.606 393.048,389.939 391.5,393.5C 377.07,407.854 360.07,411.854 340.5,405.5C 335.634,402.896 331.301,399.562 327.5,395.5C 326.253,391.875 324.42,388.542 322,385.5C 320.645,381.059 319.145,376.726 317.5,372.5C 307.218,374.088 297.218,376.754 287.5,380.5C 284.232,381.487 280.898,381.82 277.5,381.5C 255.091,383.174 232.757,382.508 210.5,379.5C 201.507,377.577 192.507,375.41 183.5,373C 179.225,370.097 174.559,368.097 169.5,367C 163.08,362.792 156.414,359.125 149.5,356C 148.257,354.846 147.257,353.512 146.5,352C 142.782,349.303 138.782,346.97 134.5,345C 133.29,343.961 132.29,342.794 131.5,341.5C 127.836,337.003 123.669,333.003 119,329.5C 117.179,324.178 114.345,319.512 110.5,315.5C 109.662,315.158 109.328,314.492 109.5,313.5C 108.838,310.852 108.171,308.185 107.5,305.5C 108.135,304.034 108.969,302.7 110,301.5C 110.658,304.285 111.491,306.951 112.5,309.5C 113.5,309.5 114.5,309.5 115.5,309.5C 119.544,312.567 122.377,316.567 124,321.5C 132.962,331.471 142.795,340.304 153.5,348C 157.62,350.318 161.953,352.152 166.5,353.5C 167.23,354.712 168.23,355.712 169.5,356.5C 175.956,358.479 181.956,361.313 187.5,365C 199.476,367.937 211.476,370.77 223.5,373.5C 240.328,374.662 257.328,374.828 274.5,374C 282.637,373.587 290.303,371.754 297.5,368.5C 302.79,366.506 308.123,364.506 313.5,362.5C 315.595,361.588 317.595,360.421 319.5,359C 320.126,358.25 320.626,357.416 321,356.5C 322.032,350.549 322.865,344.549 323.5,338.5C 329.042,328.25 337.709,322.583 349.5,321.5C 351.047,313.168 352.547,304.835 354,296.5C 356.08,293.935 357.913,291.268 359.5,288.5C 368.458,283.351 377.291,283.351 386,288.5C 386.543,290.631 387.376,292.631 388.5,294.5C 389.086,294.291 389.586,293.957 390,293.5C 391.036,290.247 391.703,286.914 392,283.5C 392.667,271.167 392.667,258.833 392,246.5C 391.768,245.263 391.268,244.263 390.5,243.5C 388.512,235.064 386.679,226.397 385,217.5C 381.632,208.539 377.799,199.873 373.5,191.5C 371.816,187.471 370.149,183.471 368.5,179.5C 368.964,176.583 369.964,173.916 371.5,171.5C 373.587,170.415 374.92,168.749 375.5,166.5C 378.709,163.772 381.209,160.439 383,156.5C 383.333,156.833 383.667,157.167 384,157.5C 384.118,154.629 384.784,151.962 386,149.5C 386.667,134.833 386.667,120.167 386,105.5C 385.626,103.509 384.793,101.842 383.5,100.5C 382.911,98.6481 382.244,96.8148 381.5,95C 375.251,93.4638 368.917,93.1304 362.5,94C 352.652,96.6273 342.985,99.4606 333.5,102.5C 333.719,103.675 333.386,104.675 332.5,105.5C 327.975,109.192 323.308,112.692 318.5,116C 316.542,118.748 314.709,121.582 313,124.5C 309.562,129.081 305.062,130.581 299.5,129C 290.731,124.714 281.398,122.214 271.5,121.5C 253.347,118.363 235.347,119.029 217.5,123.5C 209.082,126.963 200.416,128.629 191.5,128.5C 189.448,126.122 187.448,123.789 185.5,121.5C 182.069,116.893 178.403,112.393 174.5,108C 169.055,106.112 164.055,103.445 159.5,100C 158.207,99.51 156.873,99.3433 155.5,99.5C 153.104,97.8625 150.438,96.6958 147.5,96C 143.325,95.8146 139.325,94.9813 135.5,93.5C 135.082,92.7784 134.416,92.2784 133.5,92C 129.167,91.3333 124.833,91.3333 120.5,92C 115.356,103.357 113.022,115.357 113.5,128C 113.515,131.576 114.182,134.742 115.5,137.5C 115.335,140.518 115.502,143.518 116,146.5C 117.217,150.251 118.384,154.084 119.5,158C 122.91,165.228 126.91,172.062 131.5,178.5C 131.333,179.5 131.167,180.5 131,181.5C 124.241,188.211 120.075,196.211 118.5,205.5C 116.751,208.199 115.084,211.033 113.5,214C 110.784,224.604 107.951,235.104 105,245.5C 104.333,255.833 104.333,266.167 105,276.5C 105.198,278.382 105.698,280.048 106.5,281.5C 106.265,286.876 106.598,292.209 107.5,297.5C 107.167,298.167 106.833,298.833 106.5,299.5C 105.472,297.639 103.972,296.305 102,295.5C 101.313,291.42 100.313,287.42 99,283.5C 98.3333,270.5 98.3333,257.5 99,244.5C 101.453,234.957 103.619,225.29 105.5,215.5C 107.318,207.532 109.985,199.865 113.5,192.5C 117.982,187.686 120.648,182.019 121.5,175.5C 120.325,175.719 119.325,175.386 118.5,174.5C 116.821,171.723 115.155,169.056 113.5,166.5C 111.111,160.33 109.111,153.996 107.5,147.5C 108.931,148.78 109.598,150.447 109.5,152.5C 111.849,152.542 113.182,151.375 113.5,149C 113.108,147.989 112.441,147.489 111.5,147.5C 112.364,131.825 112.864,116.158 113,100.5C 111.488,101.257 110.154,102.257 109,103.5C 107.668,116.796 107.168,130.129 107.5,143.5C 106.172,138.544 105.505,133.211 105.5,127.5C 105.667,122.167 105.833,116.833 106,111.5C 106.02,100.302 110.187,91.1356 118.5,84C 127.279,83.0847 135.946,83.5847 144.5,85.5 Z"/></g>
<g><path style="opacity:1" fill="#3c6f53" d="M 358.5,305.5 C 357.382,310.186 357.382,314.853 358.5,319.5C 363.857,319.755 368.857,321.088 373.5,323.5C 373.675,326.329 372.342,327.996 369.5,328.5C 360.5,329.333 351.5,330.167 342.5,331C 340.372,331.655 338.372,332.489 336.5,333.5C 337.716,331.549 339.382,330.049 341.5,329C 351.098,327.348 360.765,326.181 370.5,325.5C 368.838,324.673 367.505,323.507 366.5,322C 363.833,321.667 361.167,321.333 358.5,321C 358,320.5 357.5,320 357,319.5C 356.333,315.5 356.333,311.5 357,307.5C 357.278,306.584 357.778,305.918 358.5,305.5 Z"/></g>
<g><path style="opacity:1" fill="#2e885a" d="M 285.5,308.5 C 285.736,311.226 284.903,313.559 283,315.5C 280.034,319.963 276.201,323.63 271.5,326.5C 276.339,320.721 281.006,314.721 285.5,308.5 Z"/></g>
<g><path style="opacity:1" fill="#21a363" d="M 392.5,350.5 C 391.454,347.939 389.788,345.773 387.5,344C 388.517,342.951 388.684,341.784 388,340.5C 387.586,340.957 387.086,341.291 386.5,341.5C 386.066,337.336 384.233,334.003 381,331.5C 380.667,322.167 380.333,312.833 380,303.5C 378.701,291.47 373.701,289.47 365,297.5C 364.551,301.105 363.384,304.438 361.5,307.5C 360.511,311.107 360.177,314.774 360.5,318.5C 364.828,318.037 368.828,318.87 372.5,321C 373.252,321.671 373.586,322.504 373.5,323.5C 368.857,321.088 363.857,319.755 358.5,319.5C 357.382,314.853 357.382,310.186 358.5,305.5C 360.055,297.115 364.888,291.782 373,289.5C 376.072,290.036 378.739,291.37 381,293.5C 381.333,304.167 381.667,314.833 382,325.5C 383.97,329.434 386.304,333.101 389,336.5C 390.795,341.012 391.961,345.679 392.5,350.5 Z"/></g>
<g><path style="opacity:1" fill="#0aba64" d="M 261.5,323.5 C 256.679,324.597 252.013,324.597 247.5,323.5C 248.834,320.645 250.834,318.145 253.5,316C 259.592,313.468 265.925,312.301 272.5,312.5C 273.167,316.5 271.5,318.167 267.5,317.5C 267.649,318.552 267.483,319.552 267,320.5C 264.942,321.229 263.109,322.229 261.5,323.5 Z"/></g>
<g><path style="opacity:1" fill="#2f8a5d" d="M 261.5,323.5 C 263.109,322.229 264.942,321.229 267,320.5C 267.483,319.552 267.649,318.552 267.5,317.5C 271.5,318.167 273.167,316.5 272.5,312.5C 265.925,312.301 259.592,313.468 253.5,316C 250.834,318.145 248.834,320.645 247.5,323.5C 246.624,323.631 245.957,323.298 245.5,322.5C 246.986,320.698 247.986,318.698 248.5,316.5C 251.14,316.046 253.473,314.879 255.5,313C 261.455,311.928 267.455,311.428 273.5,311.5C 273.662,313.527 273.495,315.527 273,317.5C 270.876,318.622 269.043,320.122 267.5,322C 265.655,323.128 263.655,323.628 261.5,323.5 Z"/></g>
<g><path style="opacity:1" fill="#04bc62" d="M 392.5,350.5 C 393.633,358.421 393.8,366.421 393,374.5C 390.208,377.205 388.874,380.538 389,384.5C 378.999,397.57 365.832,402.404 349.5,399C 347.091,397.293 344.425,396.46 341.5,396.5C 339.856,394.519 338.19,392.519 336.5,390.5C 340.459,389.673 344.459,389.173 348.5,389C 352.403,385.721 352.403,382.388 348.5,379C 343.5,378.667 338.5,378.333 333.5,378C 329.095,376.168 327.428,372.835 328.5,368C 328.278,364.852 328.945,362.019 330.5,359.5C 331.398,357.373 333.064,356.206 335.5,356C 340.864,355.829 346.198,355.329 351.5,354.5C 354.531,349.982 353.198,347.482 347.5,347C 341.812,346.446 336.145,346.613 330.5,347.5C 329.997,341.653 331.997,336.986 336.5,333.5C 338.372,332.489 340.372,331.655 342.5,331C 351.5,330.167 360.5,329.333 369.5,328.5C 372.342,327.996 373.675,326.329 373.5,323.5C 373.586,322.504 373.252,321.671 372.5,321C 368.828,318.87 364.828,318.037 360.5,318.5C 360.177,314.774 360.511,311.107 361.5,307.5C 363.384,304.438 364.551,301.105 365,297.5C 373.701,289.47 378.701,291.47 380,303.5C 380.333,312.833 380.667,322.167 381,331.5C 384.233,334.003 386.066,337.336 386.5,341.5C 387.086,341.291 387.586,340.957 388,340.5C 388.684,341.784 388.517,342.951 387.5,344C 389.788,345.773 391.454,347.939 392.5,350.5 Z"/></g>
<g><path style="opacity:1" fill="#3a7055" d="M 263.5,286.5 C 260.263,288.779 256.596,290.446 252.5,291.5C 247.686,292.307 242.853,292.973 238,293.5C 232.573,292.179 227.073,291.345 221.5,291C 220.584,290.722 219.918,290.222 219.5,289.5C 225.145,290.127 230.811,290.627 236.5,291C 237.025,291.692 237.692,292.192 238.5,292.5C 247.011,290.955 255.344,288.955 263.5,286.5 Z"/></g>
<g><path style="opacity:1" fill="#456552" d="M 390.5,243.5 C 391.268,244.263 391.768,245.263 392,246.5C 392.667,258.833 392.667,271.167 392,283.5C 391.703,286.914 391.036,290.247 390,293.5C 389.586,293.957 389.086,294.291 388.5,294.5C 387.376,292.631 386.543,290.631 386,288.5C 377.291,283.351 368.458,283.351 359.5,288.5C 359.937,286.926 360.937,285.759 362.5,285C 370.788,280.293 378.955,280.46 387,285.5C 387.5,285.167 388,284.833 388.5,284.5C 391.689,270.988 392.356,257.321 390.5,243.5 Z"/></g>
<g><path style="opacity:1" fill="#2b905e" d="M 118.5,205.5 C 115.836,214.783 113.169,224.116 110.5,233.5C 110.132,234.91 109.299,235.91 108,236.5C 106.645,251.464 106.145,266.464 106.5,281.5C 105.698,280.048 105.198,278.382 105,276.5C 104.333,266.167 104.333,255.833 105,245.5C 107.951,235.104 110.784,224.604 113.5,214C 115.084,211.033 116.751,208.199 118.5,205.5 Z"/></g>
<g><path style="opacity:1" fill="#2f8658" d="M 193.5,239.5 C 192.833,241.167 192.167,242.833 191.5,244.5C 185.738,248.746 179.405,249.58 172.5,247C 171.177,246.184 170.511,245.017 170.5,243.5C 174.741,246.254 179.408,247.087 184.5,246C 187.529,243.824 190.529,241.657 193.5,239.5 Z"/></g>
<g><path style="opacity:1" fill="#4e5b53" d="M 263.5,286.5 C 255.344,288.955 247.011,290.955 238.5,292.5C 237.692,292.192 237.025,291.692 236.5,291C 230.811,290.627 225.145,290.127 219.5,289.5C 198.328,281.081 191.995,266.081 200.5,244.5C 207.015,236.98 214.681,230.98 223.5,226.5C 243.662,223.224 260.995,228.557 275.5,242.5C 283.779,257.59 282.112,271.09 270.5,283C 268.047,283.959 265.714,285.126 263.5,286.5 Z"/></g>
<g><path style="opacity:1" fill="#289d66" d="M 207.5,272.5 C 210.603,274.423 213.603,276.59 216.5,279C 225.487,282.593 234.82,284.093 244.5,283.5C 233.372,285.591 222.705,284.091 212.5,279C 210.946,276.713 209.279,274.546 207.5,272.5 Z"/></g>
<g><path style="opacity:1" fill="#19ae64" d="M 189.5,208.5 C 191.199,208.34 192.866,208.506 194.5,209C 193.378,210.613 193.878,211.78 196,212.5C 196.118,215.371 196.784,218.038 198,220.5C 198.433,227.316 197.933,233.816 196.5,240C 197.854,241.294 199.188,241.46 200.5,240.5C 201.308,238.577 201.808,236.577 202,234.5C 202.333,235.167 202.667,235.833 203,236.5C 203.315,233.853 204.482,233.187 206.5,234.5C 208.179,232.896 210.179,232.229 212.5,232.5C 212.33,231.178 212.663,230.011 213.5,229C 216.666,227.443 220,226.61 223.5,226.5C 214.681,230.98 207.015,236.98 200.5,244.5C 191.995,266.081 198.328,281.081 219.5,289.5C 215.189,288.351 210.856,287.184 206.5,286C 202.076,281.661 198.243,276.828 195,271.5C 194.262,269.047 193.762,266.547 193.5,264C 194.998,259.855 195.998,255.522 196.5,251C 196.859,247.201 195.192,245.034 191.5,244.5C 192.167,242.833 192.833,241.167 193.5,239.5C 195.557,232.062 196.057,224.395 195,216.5C 193.724,213.401 191.89,210.734 189.5,208.5 Z"/></g>
<g><path style="opacity:1" fill="#08ba62" d="M 244.5,283.5 C 234.82,284.093 225.487,282.593 216.5,279C 213.603,276.59 210.603,274.423 207.5,272.5C 206.883,272.389 206.383,272.056 206,271.5C 201.934,259.775 204.434,249.942 213.5,242C 225.266,233.037 238.266,231.037 252.5,236C 259.651,239.066 265.817,243.566 271,249.5C 273.431,255.949 274.098,262.615 273,269.5C 270.499,273.031 267.666,276.198 264.5,279C 261.058,279.117 258.058,280.283 255.5,282.5C 251.893,283.489 248.226,283.823 244.5,283.5 Z"/></g>
<g><path style="opacity:1" fill="#2f7f56" d="M 255.5,253.5 C 252.675,253.081 250.509,254.081 249,256.5C 248.318,260.069 248.818,263.402 250.5,266.5C 256.951,265.753 259.285,262.086 257.5,255.5C 258.798,259.408 258.632,263.408 257,267.5C 253.475,269.19 250.475,268.524 248,265.5C 247.333,262.167 247.333,258.833 248,255.5C 250.07,252.592 252.57,251.926 255.5,253.5 Z"/></g>
<g><path style="opacity:1" fill="#505753" d="M 255.5,253.5 C 255.833,254.5 256.5,255.167 257.5,255.5C 259.285,262.086 256.951,265.753 250.5,266.5C 248.818,263.402 248.318,260.069 249,256.5C 250.509,254.081 252.675,253.081 255.5,253.5 Z"/></g>
<g><path style="opacity:1" fill="#515753" d="M 220.5,251.5 C 223.808,250.974 225.974,252.307 227,255.5C 228.824,262.328 226.324,265.494 219.5,265C 217.496,262.159 216.996,258.993 218,255.5C 219.481,254.529 220.315,253.196 220.5,251.5 Z"/></g>
<g><path style="opacity:1" fill="#357e59" d="M 291.5,217.5 C 289.969,221.799 288.969,226.299 288.5,231C 288.774,234.592 289.441,238.092 290.5,241.5C 289.542,241.047 288.708,240.381 288,239.5C 287.17,233.472 287.336,227.472 288.5,221.5C 289.15,219.816 290.15,218.483 291.5,217.5 Z"/></g>
<g><path style="opacity:1" fill="#21a262" d="M 290.5,241.5 C 298.064,252.535 306.397,253.202 315.5,243.5C 316.966,242.653 317.8,241.32 318,239.5C 320.546,231.135 319.88,223.135 316,215.5C 307.685,207.517 299.518,207.517 291.5,215.5C 292.706,212.702 294.706,210.535 297.5,209C 303.204,208.313 308.87,208.479 314.5,209.5C 316.798,212.763 318.632,216.429 320,220.5C 320.657,228.523 320.49,236.523 319.5,244.5C 318.5,244.5 317.5,244.5 316.5,244.5C 313.282,251.871 307.615,254.371 299.5,252C 296.667,249.833 293.833,247.667 291,245.5C 290.51,244.207 290.343,242.873 290.5,241.5 Z"/></g>
<g><path style="opacity:1" fill="#1bb064" d="M 314.5,223.5 C 313.999,227.847 311.666,229.68 307.5,229C 306.177,228.184 305.511,227.017 305.5,225.5C 303.749,218.893 306.082,216.393 312.5,218C 314.155,219.444 314.822,221.278 314.5,223.5 Z"/></g>
<g><path style="opacity:1" fill="#525754" d="M 183.5,206.5 C 185.5,207.167 187.5,207.833 189.5,208.5C 191.89,210.734 193.724,213.401 195,216.5C 196.057,224.395 195.557,232.062 193.5,239.5C 190.529,241.657 187.529,243.824 184.5,246C 179.408,247.087 174.741,246.254 170.5,243.5C 169.5,242.833 168.5,242.167 167.5,241.5C 164.226,233.417 163.726,225.084 166,216.5C 169.167,214.667 171.667,212.167 173.5,209C 176.72,207.648 180.053,206.814 183.5,206.5 Z"/></g>
<g><path style="opacity:1" fill="#15b463" d="M 183.5,212.5 C 186.652,211.959 189.152,212.959 191,215.5C 191.498,218.817 191.665,222.15 191.5,225.5C 188.315,225.98 185.481,225.314 183,223.5C 182.421,219.797 182.588,216.131 183.5,212.5 Z"/></g>
<g><path style="opacity:1" fill="#535554" d="M 305.5,225.5 C 305.511,227.017 306.177,228.184 307.5,229C 311.666,229.68 313.999,227.847 314.5,223.5C 315.29,222.391 315.79,221.058 316,219.5C 317.978,222.124 318.812,225.124 318.5,228.5C 317.402,233.407 316.402,238.407 315.5,243.5C 306.397,253.202 298.064,252.535 290.5,241.5C 289.441,238.092 288.774,234.592 288.5,231C 288.969,226.299 289.969,221.799 291.5,217.5C 294.003,215.167 296.669,213.001 299.5,211C 302.146,210.503 304.813,210.336 307.5,210.5C 306.69,212.798 305.856,215.132 305,217.5C 304.199,220.367 304.366,223.034 305.5,225.5 Z"/></g>
<g><path style="opacity:1" fill="#1ca863" d="M 183.5,206.5 C 180.053,206.814 176.72,207.648 173.5,209C 171.667,212.167 169.167,214.667 166,216.5C 163.726,225.084 164.226,233.417 167.5,241.5C 165.066,240.229 163.566,238.229 163,235.5C 162.722,228.165 162.889,220.832 163.5,213.5C 164.822,213.67 165.989,213.337 167,212.5C 167.121,210.273 167.954,208.44 169.5,207C 173.354,206.646 177.188,206.146 181,205.5C 182.07,205.528 182.903,205.861 183.5,206.5 Z"/></g>
<g><path style="opacity:1" fill="#416954" d="M 315.5,243.5 C 316.402,238.407 317.402,233.407 318.5,228.5C 318.812,225.124 317.978,222.124 316,219.5C 315.79,221.058 315.29,222.391 314.5,223.5C 314.822,221.278 314.155,219.444 312.5,218C 306.082,216.393 303.749,218.893 305.5,225.5C 304.366,223.034 304.199,220.367 305,217.5C 305.856,215.132 306.69,212.798 307.5,210.5C 304.813,210.336 302.146,210.503 299.5,211C 296.669,213.001 294.003,215.167 291.5,217.5C 291.5,216.833 291.5,216.167 291.5,215.5C 299.518,207.517 307.685,207.517 316,215.5C 319.88,223.135 320.546,231.135 318,239.5C 317.8,241.32 316.966,242.653 315.5,243.5 Z"/></g>
<g><path style="opacity:1" fill="#2a925f" d="M 371.5,171.5 C 369.964,173.916 368.964,176.583 368.5,179.5C 370.149,183.471 371.816,187.471 373.5,191.5C 371.467,189.837 369.634,187.837 368,185.5C 367.833,183.833 367.667,182.167 367.5,180.5C 366.965,176.576 368.298,173.576 371.5,171.5 Z"/></g>
<g><path style="opacity:1" fill="#515753" d="M 309.5,173.5 C 310.167,173.5 310.833,173.5 311.5,173.5C 312.914,175.811 314.747,177.811 317,179.5C 317.494,181.134 317.66,182.801 317.5,184.5C 315.784,184.371 314.117,184.038 312.5,183.5C 311.415,181.413 309.749,180.08 307.5,179.5C 303.366,178.515 299.032,178.182 294.5,178.5C 294.178,176.278 294.845,174.444 296.5,173C 300.848,172.585 305.181,172.751 309.5,173.5 Z"/></g>
<g><path style="opacity:1" fill="#377453" d="M 309.5,173.5 C 305.181,172.751 300.848,172.585 296.5,173C 294.845,174.444 294.178,176.278 294.5,178.5C 299.032,178.182 303.366,178.515 307.5,179.5C 302.821,179.666 298.155,179.499 293.5,179C 291.972,176.119 292.638,173.786 295.5,172C 299.833,171.333 304.167,171.333 308.5,172C 309.056,172.383 309.389,172.883 309.5,173.5 Z"/></g>
<g><path style="opacity:1" fill="#2e7d56" d="M 311.5,173.5 C 315.369,175.203 318.036,178.036 319.5,182C 318.862,185.293 316.862,186.293 313.5,185C 312.944,184.617 312.611,184.117 312.5,183.5C 314.117,184.038 315.784,184.371 317.5,184.5C 317.66,182.801 317.494,181.134 317,179.5C 314.747,177.811 312.914,175.811 311.5,173.5 Z"/></g>
<g><path style="opacity:1" fill="#4d5b52" d="M 175.5,169.5 C 181.004,169.15 186.337,169.817 191.5,171.5C 191.714,173.144 191.38,174.644 190.5,176C 185.437,176.248 180.437,176.915 175.5,178C 173.597,179.447 171.93,181.114 170.5,183C 168.866,183.494 167.199,183.66 165.5,183.5C 165.201,181.396 165.534,179.396 166.5,177.5C 169.52,174.811 172.52,172.144 175.5,169.5 Z"/></g>
<g><path style="opacity:1" fill="#3f6c54" d="M 383.5,100.5 C 384.793,101.842 385.626,103.509 386,105.5C 386.667,120.167 386.667,134.833 386,149.5C 384.784,151.962 384.118,154.629 384,157.5C 383.667,157.167 383.333,156.833 383,156.5C 381.209,160.439 378.709,163.772 375.5,166.5C 377.989,161.522 380.489,156.522 383,151.5C 385.908,134.451 386.075,117.451 383.5,100.5 Z"/></g>
<g><path style="opacity:1" fill="#2a935f" d="M 135.5,93.5 C 132.517,93.1016 129.517,92.7683 126.5,92.5C 123.989,92.288 121.822,92.9546 120,94.5C 119.244,101.361 117.911,108.028 116,114.5C 115.5,122.159 115.334,129.826 115.5,137.5C 114.182,134.742 113.515,131.576 113.5,128C 113.022,115.357 115.356,103.357 120.5,92C 124.833,91.3333 129.167,91.3333 133.5,92C 134.416,92.2784 135.082,92.7784 135.5,93.5 Z"/></g>
<g><path style="opacity:1" fill="#2b925d" d="M 271.5,121.5 C 253.446,121.091 235.446,121.758 217.5,123.5C 235.347,119.029 253.347,118.363 271.5,121.5 Z"/></g>
<g><path style="opacity:1" fill="#31845a" d="M 327.5,97.5 C 322.837,101.89 317.837,106.057 312.5,110C 310.167,113 307.833,116 305.5,119C 303.966,119.923 302.299,120.423 300.5,120.5C 296.571,119.358 292.571,118.524 288.5,118C 286.146,116.1 283.48,114.767 280.5,114C 261.517,112.399 242.517,112.232 223.5,113.5C 225.631,112.686 227.964,112.186 230.5,112C 248.551,111.046 266.551,111.546 284.5,113.5C 288.833,115 293.166,116.5 297.5,118C 299.833,118.667 302.167,118.667 304.5,118C 310.84,109.483 318.507,102.65 327.5,97.5 Z"/></g>
<g><path style="opacity:1" fill="#358158" d="M 155.5,99.5 C 156.873,99.3433 158.207,99.51 159.5,100C 164.055,103.445 169.055,106.112 174.5,108C 178.403,112.393 182.069,116.893 185.5,121.5C 181.336,118.168 177.669,114.335 174.5,110C 167.166,108.007 160.833,104.507 155.5,99.5 Z"/></g>
<g><path style="opacity:1" fill="#2d8b5c" d="M 180.5,103.5 C 184.402,105.893 187.902,108.893 191,112.5C 192.219,116.892 195.052,119.226 199.5,119.5C 198.054,120.613 196.387,120.78 194.5,120C 190.4,114.063 185.733,108.563 180.5,103.5 Z"/></g>
<g><path style="opacity:1" fill="#229f61" d="M 145.5,85.5 C 148.518,85.3354 151.518,85.502 154.5,86C 157.526,88.1945 160.859,89.6945 164.5,90.5C 166.956,92.5675 169.622,94.4008 172.5,96C 173.386,97.6147 174.386,99.1147 175.5,100.5C 170.904,97.7543 166.404,94.7543 162,91.5C 156.354,89.5594 150.854,87.5594 145.5,85.5 Z"/></g>
<g><path style="opacity:0.455" fill="#f6db65" d="M 466.5,330.5 C 463.186,339.795 458.853,348.461 453.5,356.5C 453.998,353.513 454.498,350.513 455,347.5C 455.667,348.833 456.333,348.833 457,347.5C 459.114,342.548 461.114,337.548 463,332.5C 464.113,331.695 465.279,331.028 466.5,330.5 Z"/></g>
<g><path style="opacity:0.004" fill="#fefffe" d="M 465.5,357.5 C 466.833,358.167 466.833,358.167 465.5,357.5 Z"/></g>
<g><path style="opacity:0.984" fill="#fbe279" d="M 47.5,351.5 C 50.6107,355.542 53.6107,359.708 56.5,364C 57.222,366.677 58.222,369.177 59.5,371.5C 54.5106,365.537 50.5106,358.871 47.5,351.5 Z"/></g>
<g><path style="opacity:1" fill="#219e62" d="M 166.5,353.5 C 174.971,356.693 183.305,360.193 191.5,364C 201.954,367.484 212.62,370.151 223.5,372C 240.163,372.5 256.83,372.667 273.5,372.5C 257.008,373.497 240.342,373.83 223.5,373.5C 211.476,370.77 199.476,367.937 187.5,365C 181.956,361.313 175.956,358.479 169.5,356.5C 168.23,355.712 167.23,354.712 166.5,353.5 Z"/></g>
<g><path style="opacity:1" fill="#386f51" d="M 297.5,368.5 C 290.303,371.754 282.637,373.587 274.5,374C 257.328,374.828 240.328,374.662 223.5,373.5C 240.342,373.83 257.008,373.497 273.5,372.5C 281.686,372.144 289.686,370.811 297.5,368.5 Z"/></g>
<g><path style="opacity:1" fill="#2a9761" d="M 330.5,359.5 C 328.945,362.019 328.278,364.852 328.5,368C 327.428,372.835 329.095,376.168 333.5,378C 338.5,378.333 343.5,378.667 348.5,379C 352.403,382.388 352.403,385.721 348.5,389C 344.459,389.173 340.459,389.673 336.5,390.5C 338.19,392.519 339.856,394.519 341.5,396.5C 339.195,395.213 336.862,393.88 334.5,392.5C 333.754,391.264 333.421,389.93 333.5,388.5C 338.179,388.666 342.845,388.499 347.5,388C 350.73,386.276 351.064,384.276 348.5,382C 340.993,381.874 333.993,380.041 327.5,376.5C 326.386,371.554 326.219,366.554 327,361.5C 327.816,360.177 328.983,359.511 330.5,359.5 Z"/></g>
<g><path style="opacity:0.004" fill="#fefffe" d="M 469.5,376.5 C 470.833,377.167 470.833,377.167 469.5,376.5 Z"/></g>
<g><path style="opacity:1" fill="#357856" d="M 210.5,379.5 C 232.757,382.508 255.091,383.174 277.5,381.5C 276.391,382.29 275.058,382.79 273.5,383C 256.5,383.667 239.5,383.667 222.5,383C 218.814,382.441 215.147,381.774 211.5,381C 210.944,380.617 210.611,380.117 210.5,379.5 Z"/></g>
<g><path style="opacity:1" fill="#2a925d" d="M 402.5,351.5 C 405.271,366.198 402.605,379.864 394.5,392.5C 393.675,393.386 392.675,393.719 391.5,393.5C 393.048,389.939 395.048,386.606 397.5,383.5C 401.584,373.246 403.251,362.579 402.5,351.5 Z"/></g>
<g><path style="opacity:0.004" fill="#fefffe" d="M 26.5,403.5 C 27.8333,404.167 27.8333,404.167 26.5,403.5 Z"/></g>
<g><path style="opacity:1" fill="#259d60" d="M 391.5,393.5 C 391.631,394.239 391.464,394.906 391,395.5C 387.167,399 383.333,402.5 379.5,406C 367.421,409.377 355.088,410.377 342.5,409C 338.887,406.361 334.887,404.528 330.5,403.5C 330.833,402.833 331.167,402.167 331.5,401.5C 329.722,399.736 328.389,397.736 327.5,395.5C 331.301,399.562 335.634,402.896 340.5,405.5C 360.07,411.854 377.07,407.854 391.5,393.5 Z"/></g>
<g><path style="opacity:0.004" fill="#fefffe" d="M 477.5,419.5 C 478.833,420.167 478.833,420.167 477.5,419.5 Z"/></g>
<g><path style="opacity:0.004" fill="#fefffe" d="M 474.5,421.5 C 475.833,422.167 475.833,422.167 474.5,421.5 Z"/></g>
<g><path style="opacity:0.004" fill="#fefffe" d="M 474.5,424.5 C 475.833,425.167 475.833,425.167 474.5,424.5 Z"/></g>
<g><path style="opacity:0.004" fill="#fefffe" d="M 46.5,433.5 C 47.8333,434.167 47.8333,434.167 46.5,433.5 Z"/></g>
<g><path style="opacity:0.004" fill="#fefffe" d="M 392.5,453.5 C 393.833,454.167 393.833,454.167 392.5,453.5 Z"/></g>
<g><path style="opacity:1" fill="#f8d959" d="M 351.5,452.5 C 333.903,461.476 315.236,467.476 295.5,470.5C 306.778,467.579 318.111,464.079 329.5,460C 328.62,458.644 328.286,457.144 328.5,455.5C 329.873,455.343 331.207,455.51 332.5,456C 329.649,457.881 329.982,458.715 333.5,458.5C 339.228,455.623 345.228,453.623 351.5,452.5 Z"/></g>
<g><path style="opacity:1" fill="#4abb45" d="M 197.5,453.5 C 208.761,455.32 220.094,456.82 231.5,458C 245.829,458.5 260.163,458.667 274.5,458.5C 248.441,462.306 222.774,460.639 197.5,453.5 Z"/></g>
<g><path style="opacity:0.004" fill="#fefffe" d="M 489.5,458.5 C 490.833,459.167 490.833,459.167 489.5,458.5 Z"/></g>
<g><path style="opacity:0.004" fill="#fefffe" d="M 492.5,460.5 C 493.833,461.167 493.833,461.167 492.5,460.5 Z"/></g>
<g><path style="opacity:0.855" fill="#f8dc6b" d="M 187.5,465.5 C 199.071,468.095 210.737,470.262 222.5,472C 223.056,472.383 223.389,472.883 223.5,473.5C 215.816,472.497 208.15,471.33 200.5,470C 195.892,468.965 191.559,467.465 187.5,465.5 Z"/></g>
<g><path style="opacity:0.004" fill="#fefffe" d="M 147.5,472.5 C 148.833,473.167 148.833,473.167 147.5,472.5 Z"/></g>
<g><path style="opacity:0.81" fill="#f2d568" d="M 295.5,470.5 C 290.444,472.347 285.111,473.514 279.5,474C 261.503,474.5 243.503,474.667 225.5,474.5C 241.995,473.668 258.662,473.168 275.5,473C 282.085,471.51 288.752,470.677 295.5,470.5 Z"/></g>
<g><path style="opacity:0.004" fill="#fefffe" d="M 354.5,477.5 C 355.833,478.167 355.833,478.167 354.5,477.5 Z"/></g>
<g><path style="opacity:0.004" fill="#fefffe" d="M 244.5,481.5 C 245.833,482.167 245.833,482.167 244.5,481.5 Z"/></g>
<g><path style="opacity:0.004" fill="#fefffe" d="M 141.5,482.5 C 142.833,483.167 142.833,483.167 141.5,482.5 Z"/></g>
<g><path style="opacity:0.004" fill="#fefffe" d="M 280.5,487.5 C 281.833,488.167 281.833,488.167 280.5,487.5 Z"/></g>
<g><path style="opacity:0.004" fill="#fefffe" d="M 50.5,490.5 C 51.8333,491.167 51.8333,491.167 50.5,490.5 Z"/></g>
<g><path style="opacity:0.004" fill="#fefffe" d="M 277.5,491.5 C 278.833,492.167 278.833,492.167 277.5,491.5 Z"/></g>
<g><path style="opacity:0.004" fill="#fefffe" d="M 139.5,493.5 C 138.833,492.167 138.833,492.167 139.5,493.5 Z"/></g>
</svg>
